<svg width="209" height="118" viewBox="0 0 209 118" fill="none" xmlns="http://www.w3.org/2000/svg">
<path d="M19.9004 98.3916C19.9004 98.1631 19.7686 98.0137 19.5049 97.9434C19.0244 97.8262 18.7842 97.624 18.7842 97.3369C18.7842 97.1201 18.8779 96.9092 19.0654 96.7041C19.2588 96.4932 19.4639 96.3877 19.6807 96.3877L20.9111 96.4229C21.4854 96.4229 22.2412 96.3848 23.1787 96.3086C24.1104 96.2324 24.8076 96.1943 25.2705 96.1943C26.8877 96.1943 28.1855 96.6514 29.1641 97.5654C30.1484 98.4736 30.6406 99.6719 30.6406 101.16C30.6406 102.795 29.9375 104.286 28.5312 105.634C27.1309 106.976 25.1328 107.957 22.5371 108.578C21.5117 108.824 20.8174 109.073 20.4541 109.325C19.9736 109.653 19.5752 109.817 19.2588 109.817C19.0361 109.817 18.8369 109.697 18.6611 109.457C18.4912 109.223 18.4062 109.035 18.4062 108.895C18.4062 108.836 18.4648 108.684 18.582 108.438C18.7051 108.174 18.79 107.907 18.8369 107.638C18.8896 107.368 18.9336 106.885 18.9688 106.188C18.998 105.496 19.1035 104.38 19.2852 102.839C19.4727 101.292 19.625 100.196 19.7422 99.5518C19.8477 98.9893 19.9004 98.6025 19.9004 98.3916ZM21.4912 97.8027C20.7939 101.992 20.4453 104.948 20.4453 106.671C20.4453 107.052 20.4834 107.339 20.5596 107.532C20.6064 107.573 20.6973 107.594 20.832 107.594C21.207 107.594 22.1885 107.348 23.7764 106.855C25.3643 106.363 26.6533 105.604 27.6436 104.579C28.6338 103.554 29.1289 102.388 29.1289 101.081C29.1289 99.9971 28.7451 99.1328 27.9775 98.4883C27.2158 97.8379 26.208 97.5127 24.9541 97.5127C24.1924 97.5127 23.2754 97.583 22.2031 97.7236C21.9629 97.7588 21.7256 97.7852 21.4912 97.8027ZM39.641 106.021C39.641 106.618 39.1107 107.339 38.0502 108.183C36.9955 109.026 35.9056 109.448 34.7806 109.448C33.8373 109.448 33.1078 109.17 32.5921 108.613C32.0824 108.057 31.8275 107.28 31.8275 106.284C31.8275 104.608 32.3929 103.015 33.5238 101.503C34.6546 99.9912 35.891 99.2354 37.2328 99.2354C37.6722 99.2354 38.0296 99.3789 38.305 99.666C38.5863 99.9531 38.7269 100.299 38.7269 100.703C38.7269 101.605 38.2845 102.47 37.3998 103.296C36.515 104.122 35.3314 104.934 33.849 105.73C33.5443 105.889 33.392 106.094 33.392 106.346C33.392 106.832 33.5326 107.222 33.8138 107.515C34.0951 107.808 34.5111 107.954 35.0619 107.954C36.3216 107.954 37.6078 107.257 38.9203 105.862C39.1136 105.669 39.2601 105.572 39.3597 105.572C39.5472 105.572 39.641 105.722 39.641 106.021ZM33.5326 104.649C36.017 103.173 37.2591 101.986 37.2591 101.09C37.2591 100.738 37.1009 100.562 36.7845 100.562C36.2455 100.562 35.6361 100.958 34.9564 101.749C34.2826 102.54 33.808 103.507 33.5326 104.649ZM45.5476 106.987C45.5476 106.606 45.0788 106.173 44.1413 105.687C42.9519 105.077 42.1462 104.591 41.7243 104.228C41.3083 103.858 41.1003 103.448 41.1003 102.997C41.1003 101.831 41.6833 100.864 42.8493 100.097C44.0212 99.3291 44.9763 98.9453 45.7146 98.9453C46.1892 98.9453 46.532 99.0273 46.7429 99.1914C46.9597 99.3555 47.0681 99.6396 47.0681 100.044C47.0681 100.226 46.989 100.381 46.8308 100.51C46.6784 100.639 46.5583 100.703 46.4704 100.703C46.406 100.703 46.28 100.659 46.0925 100.571C45.905 100.489 45.782 100.448 45.7234 100.448C45.4304 100.448 44.8357 100.662 43.9392 101.09C43.0427 101.518 42.5945 102.001 42.5945 102.54C42.5945 102.868 42.7527 103.167 43.0691 103.437C43.3855 103.7 43.9538 104.025 44.7741 104.412C45.4363 104.729 45.9636 105.068 46.3562 105.432C46.7546 105.789 46.9538 106.211 46.9538 106.697C46.9538 107.594 46.3357 108.297 45.0993 108.807C43.863 109.311 42.6823 109.562 41.5573 109.562C40.6081 109.562 40.1335 109.24 40.1335 108.596C40.1335 108.373 40.239 108.209 40.4499 108.104C40.6667 107.998 40.8835 107.945 41.1003 107.945C41.1882 107.945 41.3552 107.975 41.6013 108.033C41.8415 108.092 41.9997 108.121 42.0759 108.121C42.7263 108.121 43.4236 108.013 44.1677 107.796C44.9118 107.579 45.3718 107.31 45.5476 106.987ZM50.8126 109.501C49.9337 109.501 49.2569 109.249 48.7823 108.745C48.3136 108.241 48.0792 107.535 48.0792 106.627C48.0792 105.098 48.6856 103.486 49.8985 101.793C51.1114 100.094 52.2393 99.2441 53.2823 99.2441C53.7569 99.2441 54.1641 99.502 54.504 100.018C54.8497 100.527 55.0225 101.069 55.0225 101.644C55.0225 101.989 54.9464 102.288 54.794 102.54C54.6475 102.786 54.4981 102.909 54.3458 102.909C54.0059 102.909 53.7657 102.566 53.6251 101.881C53.4669 101.143 53.2384 100.773 52.9395 100.773C52.3302 100.773 51.6095 101.497 50.7774 102.944C49.9454 104.392 49.5294 105.613 49.5294 106.609C49.5294 107.605 50.0948 108.104 51.2257 108.104C52.087 108.104 53.1007 107.699 54.2667 106.891C54.6768 106.604 54.9786 106.46 55.172 106.46C55.3712 106.46 55.4708 106.574 55.4708 106.803C55.4708 107.248 54.9464 107.811 53.8975 108.49C52.8487 109.164 51.8204 109.501 50.8126 109.501ZM58.9516 105.511C59.0102 105.405 59.0805 105.259 59.1625 105.071C59.561 104.157 59.9272 103.442 60.2612 102.927C60.5952 102.405 60.9614 101.907 61.3598 101.433C61.7641 100.958 62.1303 100.598 62.4584 100.352C62.7924 100.105 63.0942 99.9355 63.3637 99.8418C63.6332 99.7422 63.894 99.6924 64.1459 99.6924C64.6557 99.6924 65.0717 99.8477 65.394 100.158C65.7163 100.463 65.8774 100.82 65.8774 101.23C65.8774 101.412 65.8188 101.576 65.7016 101.723C65.5903 101.869 65.4174 101.942 65.183 101.942C64.937 101.942 64.7114 101.834 64.5063 101.617C64.2954 101.4 64.0756 101.292 63.8471 101.292C63.2377 101.292 62.394 102.03 61.3159 103.507C60.2377 104.983 59.5815 106.609 59.3471 108.385C59.2885 108.842 59.1772 109.144 59.0131 109.29C58.8491 109.437 58.6176 109.51 58.3188 109.51C58.0317 109.51 57.8237 109.296 57.6948 108.868C57.5659 108.44 57.5014 107.72 57.5014 106.706C57.5014 106.431 57.5161 105.824 57.5454 104.887C57.5805 103.779 57.6508 102.886 57.7563 102.206C57.7739 102.095 57.8032 101.834 57.8442 101.424C57.8852 100.973 57.935 100.659 57.9936 100.483C58.058 100.308 58.184 100.144 58.3715 99.9912C58.5649 99.8389 58.7729 99.7627 58.9955 99.7627C59.2123 99.7627 59.3735 99.833 59.4789 99.9736C59.5903 100.108 59.6459 100.255 59.6459 100.413C59.6459 100.642 59.5873 100.964 59.4702 101.38C59.3354 101.843 59.2563 102.162 59.2329 102.338C59.2153 102.537 59.183 102.745 59.1362 102.962C59.0776 103.214 59.019 103.876 58.9604 104.948L58.9516 105.273V105.511ZM68.9979 97.2314C68.8748 97.2314 68.7811 97.0996 68.7166 96.8359C68.6932 96.7539 68.6609 96.6631 68.6199 96.5635C68.4617 96.1826 68.3826 95.8516 68.3826 95.5703C68.3826 95.3359 68.5203 95.0986 68.7957 94.8584C69.077 94.6123 69.3875 94.4893 69.7273 94.4893C69.8973 94.4893 70.0877 94.5566 70.2986 94.6914C70.5096 94.8203 70.615 94.9463 70.615 95.0693C70.615 95.2627 70.5418 95.5908 70.3953 96.0537C70.2547 96.5166 70.0262 96.8301 69.7098 96.9941C69.3992 97.1523 69.1619 97.2314 68.9979 97.2314ZM67.8465 107.049C67.8465 107.494 67.908 107.995 68.0311 108.552C68.0545 108.657 68.0662 108.745 68.0662 108.815C68.0662 108.921 67.9695 109.056 67.7762 109.22C67.5828 109.39 67.3777 109.475 67.1609 109.475C66.5926 109.475 66.3084 108.953 66.3084 107.91C66.3084 106.832 66.5311 105.127 66.9764 102.795C67.1287 101.98 67.2049 101.479 67.2049 101.292C67.2049 100.923 67.2723 100.609 67.407 100.352C67.5418 100.088 67.7322 99.9561 67.9783 99.9561C68.2771 99.9561 68.5115 100.029 68.6814 100.176C68.8572 100.316 68.9451 100.475 68.9451 100.65C68.9451 100.826 68.9041 101.058 68.8221 101.345C68.3826 102.892 68.1102 103.999 68.0047 104.667C67.8992 105.335 67.8465 106.129 67.8465 107.049ZM72.6193 103.999C73.3693 102.634 74.2658 101.529 75.3088 100.686C76.3517 99.8359 77.2921 99.4111 78.13 99.4111C78.5929 99.4111 78.9855 99.625 79.3078 100.053C79.63 100.48 79.7912 101.002 79.7912 101.617C79.7912 103.439 79.1027 105.15 77.7257 106.75C76.3546 108.344 74.9045 109.141 73.3752 109.141C72.9591 109.141 72.5754 109.029 72.2238 108.807C71.8781 108.578 71.6847 108.294 71.6437 107.954C71.6203 107.679 71.5412 107.474 71.4064 107.339C71.1545 107.087 71.0285 106.817 71.0285 106.53C71.0285 105.997 71.175 104.857 71.4679 103.111L72.3732 97.8555C72.6838 96.0918 72.9093 95.002 73.05 94.5859C73.1964 94.1699 73.3576 93.8916 73.5334 93.751C73.7091 93.6104 73.9259 93.54 74.1838 93.54C74.5939 93.54 74.799 93.8945 74.799 94.6035C74.799 95.2773 74.5734 96.2207 74.1222 97.4336C73.6886 98.5996 73.1877 100.788 72.6193 103.999ZM72.4084 106.926C72.713 107.494 73.0822 107.778 73.5158 107.778C74.1838 107.778 74.8898 107.503 75.6339 106.952C76.3781 106.396 77.0197 105.616 77.5588 104.614C78.1037 103.606 78.3761 102.757 78.3761 102.065C78.3761 101.755 78.3205 101.488 78.2091 101.266C78.0978 101.043 77.9572 100.932 77.7873 100.932C76.9728 100.932 75.9767 101.6 74.799 102.936C73.6271 104.266 72.8302 105.596 72.4084 106.926ZM88.6509 106.021C88.6509 106.618 88.1206 107.339 87.0601 108.183C86.0054 109.026 84.9155 109.448 83.7905 109.448C82.8472 109.448 82.1177 109.17 81.6021 108.613C81.0923 108.057 80.8374 107.28 80.8374 106.284C80.8374 104.608 81.4029 103.015 82.5337 101.503C83.6646 99.9912 84.9009 99.2354 86.2427 99.2354C86.6821 99.2354 87.0396 99.3789 87.315 99.666C87.5962 99.9531 87.7368 100.299 87.7368 100.703C87.7368 101.605 87.2945 102.47 86.4097 103.296C85.5249 104.122 84.3413 104.934 82.8589 105.73C82.5542 105.889 82.4019 106.094 82.4019 106.346C82.4019 106.832 82.5425 107.222 82.8237 107.515C83.105 107.808 83.521 107.954 84.0718 107.954C85.3316 107.954 86.6177 107.257 87.9302 105.862C88.1236 105.669 88.27 105.572 88.3696 105.572C88.5571 105.572 88.6509 105.722 88.6509 106.021ZM82.5425 104.649C85.0269 103.173 86.2691 101.986 86.2691 101.09C86.2691 100.738 86.1109 100.562 85.7945 100.562C85.2554 100.562 84.646 100.958 83.9663 101.749C83.2925 102.54 82.8179 103.507 82.5425 104.649ZM103.479 105.897C102.401 106.835 101.451 107.518 100.631 107.945C99.8166 108.367 99.1926 108.578 98.759 108.578C98.1789 108.578 97.7336 108.338 97.4231 107.857C97.1184 107.371 96.9661 106.806 96.9661 106.161C96.9661 105.259 97.1477 104.146 97.511 102.821C97.8801 101.491 98.1526 100.703 98.3284 100.457C98.51 100.205 98.7971 100.079 99.1897 100.079C99.3538 100.079 99.4885 100.176 99.594 100.369C99.6995 100.562 99.7522 100.782 99.7522 101.028C99.7522 101.175 99.6848 101.365 99.55 101.6C99.2336 102.15 99.0666 102.455 99.0491 102.514C99.0373 102.572 98.926 102.927 98.7151 103.577C98.5041 104.222 98.3987 104.828 98.3987 105.396C98.3987 105.596 98.4455 105.906 98.5393 106.328C98.6389 106.75 98.8411 106.961 99.1457 106.961C99.468 106.961 99.8635 106.864 100.332 106.671C100.807 106.472 101.34 106.149 101.932 105.704C102.524 105.259 102.922 104.898 103.127 104.623C103.332 104.348 103.476 104.034 103.558 103.683C103.646 103.331 103.707 102.569 103.742 101.397C103.778 100.226 104.062 99.6396 104.595 99.6396C104.911 99.6396 105.116 99.7246 105.21 99.8945C105.304 100.059 105.351 100.375 105.351 100.844C105.351 101.23 105.324 101.714 105.272 102.294C105.207 103.026 105.166 103.548 105.149 103.858C105.067 105.47 104.856 107.09 104.516 108.719C104.182 110.342 103.693 111.698 103.048 112.788C102.404 113.884 101.516 114.432 100.385 114.432C99.2366 114.432 98.2141 114.13 97.3176 113.526C96.427 112.929 95.9817 112.422 95.9817 112.006C95.9817 111.812 96.0256 111.622 96.1135 111.435C96.2073 111.247 96.3245 111.153 96.4651 111.153C96.5354 111.153 96.6116 111.209 96.6936 111.32C97.4612 112.498 98.6682 113.087 100.315 113.087C101.164 113.087 101.876 112.34 102.45 110.846C103.031 109.357 103.35 107.96 103.408 106.653C103.42 106.401 103.444 106.149 103.479 105.897ZM109.825 109.439C109.022 109.439 108.36 109.135 107.838 108.525C107.317 107.916 107.056 107.163 107.056 106.267C107.056 104.755 107.563 103.267 108.577 101.802C109.596 100.331 110.815 99.5957 112.233 99.5957C113.171 99.5957 113.929 99.9561 114.509 100.677C115.095 101.397 115.388 102.256 115.388 103.252C115.388 104.775 114.785 106.188 113.578 107.488C112.377 108.789 111.126 109.439 109.825 109.439ZM108.603 106.038C108.603 106.63 108.726 107.113 108.972 107.488C109.224 107.863 109.555 108.051 109.965 108.051C110.838 108.051 111.714 107.573 112.593 106.618C113.472 105.657 113.912 104.591 113.912 103.419C113.912 102.698 113.742 102.115 113.402 101.67C113.068 101.219 112.617 100.993 112.048 100.993C111.105 100.993 110.294 101.573 109.614 102.733C108.94 103.888 108.603 104.989 108.603 106.038ZM123.281 105.177C122.531 106.437 121.764 107.412 120.978 108.104C120.193 108.795 119.464 109.141 118.79 109.141C118.403 109.141 118.008 108.915 117.603 108.464C117.205 108.013 117.006 107.318 117.006 106.381C117.006 105.613 117.19 104.482 117.56 102.988C117.87 101.74 118.025 100.864 118.025 100.36C118.195 100.009 118.462 99.833 118.825 99.833C119.071 99.833 119.268 99.9209 119.414 100.097C119.561 100.267 119.634 100.445 119.634 100.633C119.634 101.043 119.49 101.626 119.203 102.382C118.658 103.853 118.386 105.115 118.386 106.17C118.386 107.131 118.608 107.611 119.054 107.611C119.622 107.611 120.346 107.128 121.225 106.161C122.103 105.194 122.856 103.847 123.483 102.118C123.729 101.427 123.929 100.979 124.081 100.773C124.239 100.562 124.45 100.457 124.714 100.457C125.112 100.457 125.311 100.721 125.311 101.248C125.311 101.312 125.256 101.526 125.144 101.89C124.793 103.173 124.617 104.386 124.617 105.528C124.617 106.899 124.843 107.787 125.294 108.191C125.528 108.408 125.645 108.584 125.645 108.719C125.645 108.883 125.525 109.032 125.285 109.167C125.051 109.302 124.837 109.369 124.644 109.369C124.233 109.369 123.902 109.064 123.65 108.455C123.398 107.846 123.272 106.946 123.272 105.757V105.467C123.272 105.373 123.275 105.276 123.281 105.177ZM129.478 105.511C129.536 105.405 129.607 105.259 129.689 105.071C130.087 104.157 130.453 103.442 130.787 102.927C131.121 102.405 131.488 101.907 131.886 101.433C132.29 100.958 132.657 100.598 132.985 100.352C133.319 100.105 133.62 99.9355 133.89 99.8418C134.159 99.7422 134.42 99.6924 134.672 99.6924C135.182 99.6924 135.598 99.8477 135.92 100.158C136.243 100.463 136.404 100.82 136.404 101.23C136.404 101.412 136.345 101.576 136.228 101.723C136.117 101.869 135.944 101.942 135.709 101.942C135.463 101.942 135.238 101.834 135.033 101.617C134.822 101.4 134.602 101.292 134.373 101.292C133.764 101.292 132.92 102.03 131.842 103.507C130.764 104.983 130.108 106.609 129.873 108.385C129.815 108.842 129.703 109.144 129.539 109.29C129.375 109.437 129.144 109.51 128.845 109.51C128.558 109.51 128.35 109.296 128.221 108.868C128.092 108.44 128.028 107.72 128.028 106.706C128.028 106.431 128.042 105.824 128.072 104.887C128.107 103.779 128.177 102.886 128.283 102.206C128.3 102.095 128.329 101.834 128.37 101.424C128.411 100.973 128.461 100.659 128.52 100.483C128.584 100.308 128.71 100.144 128.898 99.9912C129.091 99.8389 129.299 99.7627 129.522 99.7627C129.739 99.7627 129.9 99.833 130.005 99.9736C130.117 100.108 130.172 100.255 130.172 100.413C130.172 100.642 130.114 100.964 129.996 101.38C129.862 101.843 129.783 102.162 129.759 102.338C129.742 102.537 129.709 102.745 129.662 102.962C129.604 103.214 129.545 103.876 129.487 104.948L129.478 105.273V105.511ZM145.932 109.439C145.129 109.439 144.467 109.135 143.945 108.525C143.424 107.916 143.163 107.163 143.163 106.267C143.163 104.755 143.67 103.267 144.684 101.802C145.703 100.331 146.922 99.5957 148.34 99.5957C149.277 99.5957 150.036 99.9561 150.616 100.677C151.202 101.397 151.495 102.256 151.495 103.252C151.495 104.775 150.892 106.188 149.685 107.488C148.483 108.789 147.232 109.439 145.932 109.439ZM144.71 106.038C144.71 106.63 144.833 107.113 145.079 107.488C145.331 107.863 145.662 108.051 146.072 108.051C146.945 108.051 147.821 107.573 148.7 106.618C149.579 105.657 150.019 104.591 150.019 103.419C150.019 102.698 149.849 102.115 149.509 101.67C149.175 101.219 148.724 100.993 148.155 100.993C147.212 100.993 146.4 101.573 145.721 102.733C145.047 103.888 144.71 104.989 144.71 106.038ZM159.388 105.177C158.638 106.437 157.871 107.412 157.085 108.104C156.3 108.795 155.571 109.141 154.897 109.141C154.51 109.141 154.115 108.915 153.71 108.464C153.312 108.013 153.113 107.318 153.113 106.381C153.113 105.613 153.297 104.482 153.666 102.988C153.977 101.74 154.132 100.864 154.132 100.36C154.302 100.009 154.569 99.833 154.932 99.833C155.178 99.833 155.374 99.9209 155.521 100.097C155.667 100.267 155.741 100.445 155.741 100.633C155.741 101.043 155.597 101.626 155.31 102.382C154.765 103.853 154.493 105.115 154.493 106.17C154.493 107.131 154.715 107.611 155.161 107.611C155.729 107.611 156.453 107.128 157.331 106.161C158.21 105.194 158.963 103.847 159.59 102.118C159.836 101.427 160.036 100.979 160.188 100.773C160.346 100.562 160.557 100.457 160.821 100.457C161.219 100.457 161.418 100.721 161.418 101.248C161.418 101.312 161.363 101.526 161.251 101.89C160.9 103.173 160.724 104.386 160.724 105.528C160.724 106.899 160.95 107.787 161.401 108.191C161.635 108.408 161.752 108.584 161.752 108.719C161.752 108.883 161.632 109.032 161.392 109.167C161.158 109.302 160.944 109.369 160.75 109.369C160.34 109.369 160.009 109.064 159.757 108.455C159.505 107.846 159.379 106.946 159.379 105.757V105.467C159.379 105.373 159.382 105.276 159.388 105.177ZM167.386 100.132C167.99 100.085 168.558 100.029 169.092 99.9648C169.619 99.9062 170.058 99.877 170.41 99.877C170.855 99.877 171.136 99.918 171.254 100C171.371 100.082 171.429 100.226 171.429 100.431C171.429 100.905 171.098 101.163 170.436 101.204C169.587 101.257 168.804 101.33 168.09 101.424C167.375 101.518 166.988 101.597 166.929 101.661C166.877 101.72 166.701 102.417 166.402 103.753C166.103 105.083 165.954 105.947 165.954 106.346C165.954 106.99 166.039 107.421 166.209 107.638C166.379 107.849 166.634 107.954 166.973 107.954C167.477 107.954 168.178 107.576 169.074 106.82C169.42 106.51 169.686 106.354 169.874 106.354C170.126 106.354 170.252 106.489 170.252 106.759C170.252 107.181 169.844 107.729 169.03 108.402C168.221 109.07 167.392 109.404 166.543 109.404C165.125 109.404 164.416 108.569 164.416 106.899C164.416 106.296 164.562 105.361 164.855 104.096C165.142 102.836 165.286 102.08 165.286 101.828C165.286 101.74 165.216 101.696 165.075 101.696L164.161 101.775C163.411 101.775 163.036 101.477 163.036 100.879C163.036 100.539 163.209 100.369 163.554 100.369H165.365C165.488 100.369 165.596 100.313 165.69 100.202C165.784 100.091 165.922 99.7188 166.103 99.0859C166.285 98.4473 166.446 97.8174 166.587 97.1963C166.727 96.5811 167.003 96.2734 167.413 96.2734C167.665 96.2734 167.861 96.3613 168.002 96.5371C168.142 96.7129 168.213 96.877 168.213 97.0293C168.213 97.1113 168.107 97.5303 167.896 98.2861L167.386 100.132ZM173.636 109.404C173.595 109.551 173.484 109.674 173.302 109.773C173.12 109.873 172.939 109.923 172.757 109.923C172.159 109.923 171.86 109.486 171.86 108.613C171.86 108.197 171.998 107.02 172.274 105.08C172.443 103.891 172.528 102.988 172.528 102.373C172.528 102.268 172.405 102.13 172.159 101.96C171.907 101.796 171.781 101.635 171.781 101.477C171.781 101.225 171.972 100.952 172.353 100.659C172.646 100.431 172.824 100.176 172.889 99.8945C172.959 99.6133 173.038 99.2236 173.126 98.7256C173.425 96.9092 173.891 95.5996 174.524 94.7969C175.162 93.9941 175.974 93.5928 176.958 93.5928C177.48 93.5928 177.922 93.7715 178.285 94.1289C178.649 94.4805 178.83 94.9199 178.83 95.4473C178.83 95.875 178.728 96.3613 178.523 96.9062C178.323 97.4453 178.095 97.7148 177.837 97.7148C177.644 97.7148 177.547 97.6182 177.547 97.4248L177.609 96.5723C177.609 95.4414 177.292 94.876 176.659 94.876C175.974 94.876 175.405 95.5498 174.954 96.8975C174.503 98.2393 174.277 99.332 174.277 100.176C174.277 100.445 174.453 100.58 174.805 100.58C176.334 100.58 177.234 100.574 177.503 100.562C177.778 100.551 177.916 100.665 177.916 100.905C177.916 101.146 177.767 101.33 177.468 101.459C177.175 101.582 176.53 101.693 175.534 101.793C174.685 101.881 174.204 101.954 174.093 102.013C173.7 104.192 173.504 106.135 173.504 107.84C173.504 108.35 173.527 108.728 173.574 108.974C173.615 109.202 173.636 109.346 173.636 109.404ZM181.072 97.2314C180.949 97.2314 180.855 97.0996 180.791 96.8359C180.767 96.7539 180.735 96.6631 180.694 96.5635C180.536 96.1826 180.457 95.8516 180.457 95.5703C180.457 95.3359 180.594 95.0986 180.87 94.8584C181.151 94.6123 181.461 94.4893 181.801 94.4893C181.971 94.4893 182.162 94.5566 182.373 94.6914C182.583 94.8203 182.689 94.9463 182.689 95.0693C182.689 95.2627 182.616 95.5908 182.469 96.0537C182.329 96.5166 182.1 96.8301 181.784 96.9941C181.473 97.1523 181.236 97.2314 181.072 97.2314ZM179.92 107.049C179.92 107.494 179.982 107.995 180.105 108.552C180.128 108.657 180.14 108.745 180.14 108.815C180.14 108.921 180.043 109.056 179.85 109.22C179.657 109.39 179.452 109.475 179.235 109.475C178.666 109.475 178.382 108.953 178.382 107.91C178.382 106.832 178.605 105.127 179.05 102.795C179.203 101.98 179.279 101.479 179.279 101.292C179.279 100.923 179.346 100.609 179.481 100.352C179.616 100.088 179.806 99.9561 180.052 99.9561C180.351 99.9561 180.585 100.029 180.755 100.176C180.931 100.316 181.019 100.475 181.019 100.65C181.019 100.826 180.978 101.058 180.896 101.345C180.457 102.892 180.184 103.999 180.079 104.667C179.973 105.335 179.92 106.129 179.92 107.049ZM186.662 100.132C187.265 100.085 187.834 100.029 188.367 99.9648C188.894 99.9062 189.334 99.877 189.685 99.877C190.131 99.877 190.412 99.918 190.529 100C190.646 100.082 190.705 100.226 190.705 100.431C190.705 100.905 190.374 101.163 189.712 101.204C188.862 101.257 188.08 101.33 187.365 101.424C186.65 101.518 186.264 101.597 186.205 101.661C186.152 101.72 185.976 102.417 185.678 103.753C185.379 105.083 185.229 105.947 185.229 106.346C185.229 106.99 185.314 107.421 185.484 107.638C185.654 107.849 185.909 107.954 186.249 107.954C186.753 107.954 187.453 107.576 188.349 106.82C188.695 106.51 188.962 106.354 189.149 106.354C189.401 106.354 189.527 106.489 189.527 106.759C189.527 107.181 189.12 107.729 188.306 108.402C187.497 109.07 186.668 109.404 185.818 109.404C184.4 109.404 183.691 108.569 183.691 106.899C183.691 106.296 183.838 105.361 184.131 104.096C184.418 102.836 184.561 102.08 184.561 101.828C184.561 101.74 184.491 101.696 184.35 101.696L183.436 101.775C182.686 101.775 182.311 101.477 182.311 100.879C182.311 100.539 182.484 100.369 182.83 100.369H184.64C184.764 100.369 184.872 100.313 184.966 100.202C185.059 100.091 185.197 99.7188 185.379 99.0859C185.56 98.4473 185.722 97.8174 185.862 97.1963C186.003 96.5811 186.278 96.2734 186.688 96.2734C186.94 96.2734 187.137 96.3613 187.277 96.5371C187.418 96.7129 187.488 96.877 187.488 97.0293C187.488 97.1113 187.383 97.5303 187.172 98.2861L186.662 100.132Z" fill="white" fill-opacity="0.8"/>
<path d="M109.797 34.4114L110.163 34.7523L109.797 34.4114ZM187.989 27.4107L184.925 22.5173L182.22 27.6175L187.989 27.4107ZM117.139 95.0173C109.166 87.4593 102.809 77.3197 100.755 66.6114C98.7048 55.9235 100.935 44.6533 110.163 34.7523L109.431 34.0705C99.9695 44.223 97.6674 55.8235 99.7728 66.7998C101.874 77.7556 108.361 88.0737 116.452 95.743L117.139 95.0173ZM110.163 34.7523C118.827 25.4559 131.902 20.6684 145.514 19.4813C159.123 18.2944 173.2 20.714 183.8 25.7537L184.23 24.8506C173.451 19.7265 159.194 17.2845 145.427 18.4851C131.663 19.6854 118.319 24.5344 109.431 34.0705L110.163 34.7523Z" fill="white" fill-opacity="0.8"/>
</svg>
